# MagicaVoxel @ Ephtracy

# group
g axe

# material
mtllib axe.mtl
usemtl palette

# normals
vn -1 0 0
vn 1 0 0
vn 0 0 1
vn 0 0 -1
vn 0 -1 0
vn 0 1 0

# texcoords
vt 0.279297 0.5
vt 0.302734 0.5
vt 0.970703 0.5
vt 0.974609 0.5
vt 0.978516 0.5
vt 0.982422 0.5
vt 0.986328 0.5

# verts
v -8.5 18 1
v -8.5 18 -1
v -8.5 21 1
v -8.5 21 -1
v -7.5 17 1
v -7.5 17 -1
v -7.5 18 1
v -7.5 18 -1
v -7.5 21 1
v -7.5 21 -1
v -7.5 22 1
v -7.5 22 -1
v -6.5 15 1
v -6.5 15 -1
v -6.5 17 1
v -6.5 17 -1
v -6.5 22 1
v -6.5 22 -1
v -6.5 24 1
v -6.5 24 -1
v -5.5 14 1
v -5.5 14 -1
v -5.5 15 1
v -5.5 15 -1
v -5.5 24 1
v -5.5 24 -1
v -5.5 25 1
v -5.5 25 -1
v -1.5 0 1
v -1.5 0 -1
v -1.5 16 1
v -1.5 16 -1
v -1.5 18 1
v -1.5 18 -0
v -1.5 18 -1
v -1.5 19 1
v -1.5 19 -0
v -1.5 21 1
v -1.5 21 -1
v -1.5 23 1
v -1.5 23 -1
v 2.5 14 1
v 2.5 14 -1
v 2.5 15 1
v 2.5 15 -1
v 2.5 24 1
v 2.5 24 -1
v 2.5 25 1
v 2.5 25 -1
v 3.5 15 1
v 3.5 15 -1
v 3.5 16 1
v 3.5 16 -1
v 3.5 18 1
v 3.5 18 -0
v 3.5 19 1
v 3.5 19 -0
v 3.5 23 1
v 3.5 23 -1
v 3.5 24 1
v 3.5 24 -1
v 4.5 16 1
v 4.5 16 -1
v 4.5 18 1
v 4.5 18 -1
v 4.5 21 1
v 4.5 21 -1
v 4.5 23 1
v 4.5 23 -1
v -4.5 16 1
v -4.5 16 -1
v -4.5 18 1
v -4.5 18 -1
v -4.5 21 1
v -4.5 21 -1
v -4.5 23 1
v -4.5 23 -1
v -3.5 15 1
v -3.5 15 -1
v -3.5 16 1
v -3.5 16 -1
v -3.5 18 1
v -3.5 18 -0
v -3.5 19 1
v -3.5 19 -0
v -3.5 23 1
v -3.5 23 -1
v -3.5 24 1
v -3.5 24 -1
v -2.5 14 1
v -2.5 14 -1
v -2.5 15 1
v -2.5 15 -1
v -2.5 24 1
v -2.5 24 -1
v -2.5 25 1
v -2.5 25 -1
v 1.5 0 1
v 1.5 0 -1
v 1.5 16 1
v 1.5 16 -1
v 1.5 18 1
v 1.5 18 -0
v 1.5 18 -1
v 1.5 19 1
v 1.5 19 -0
v 1.5 21 1
v 1.5 21 -1
v 1.5 23 1
v 1.5 23 -1
v 5.5 14 1
v 5.5 14 -1
v 5.5 15 1
v 5.5 15 -1
v 5.5 24 1
v 5.5 24 -1
v 5.5 25 1
v 5.5 25 -1
v 6.5 15 1
v 6.5 15 -1
v 6.5 17 1
v 6.5 17 -1
v 6.5 22 1
v 6.5 22 -1
v 6.5 24 1
v 6.5 24 -1
v 7.5 17 1
v 7.5 17 -1
v 7.5 18 1
v 7.5 18 -1
v 7.5 21 1
v 7.5 21 -1
v 7.5 22 1
v 7.5 22 -1
v 8.5 18 1
v 8.5 18 -1
v 8.5 21 1
v 8.5 21 -1
v -8.5 18 1
v -8.5 21 1
v -7.5 17 1
v -7.5 18 1
v -7.5 19 1
v -7.5 20 1
v -7.5 21 1
v -7.5 22 1
v -6.5 15 1
v -6.5 17 1
v -6.5 19 1
v -6.5 20 1
v -6.5 22 1
v -6.5 24 1
v -5.5 14 1
v -5.5 15 1
v -5.5 16 1
v -5.5 17 1
v -5.5 19 1
v -5.5 20 1
v -5.5 22 1
v -5.5 23 1
v -5.5 24 1
v -5.5 25 1
v -4.5 15 1
v -4.5 16 1
v -4.5 18 1
v -4.5 21 1
v -4.5 23 1
v -4.5 24 1
v -3.5 15 1
v -3.5 16 1
v -3.5 18 1
v -3.5 19 1
v -3.5 23 1
v -3.5 24 1
v -2.5 14 1
v -2.5 15 1
v -2.5 24 1
v -2.5 25 1
v -1.5 0 1
v -1.5 16 1
v -1.5 18 1
v -1.5 19 1
v -1.5 21 1
v -1.5 23 1
v -0.5 16 1
v -0.5 18 1
v -0.5 21 1
v -0.5 22 1
v 0.5 16 1
v 0.5 18 1
v 0.5 21 1
v 0.5 22 1
v 1.5 0 1
v 1.5 16 1
v 1.5 18 1
v 1.5 19 1
v 1.5 21 1
v 1.5 23 1
v 2.5 14 1
v 2.5 15 1
v 2.5 24 1
v 2.5 25 1
v 3.5 15 1
v 3.5 16 1
v 3.5 18 1
v 3.5 19 1
v 3.5 23 1
v 3.5 24 1
v 4.5 15 1
v 4.5 16 1
v 4.5 18 1
v 4.5 21 1
v 4.5 23 1
v 4.5 24 1
v 5.5 14 1
v 5.5 15 1
v 5.5 16 1
v 5.5 17 1
v 5.5 19 1
v 5.5 20 1
v 5.5 22 1
v 5.5 23 1
v 5.5 24 1
v 5.5 25 1
v 6.5 15 1
v 6.5 17 1
v 6.5 19 1
v 6.5 20 1
v 6.5 22 1
v 6.5 24 1
v 7.5 17 1
v 7.5 18 1
v 7.5 19 1
v 7.5 20 1
v 7.5 21 1
v 7.5 22 1
v 8.5 18 1
v 8.5 21 1
v -3.5 18 -0
v -3.5 19 -0
v -1.5 18 -0
v -1.5 19 -0
v 1.5 18 -0
v 1.5 19 -0
v 3.5 18 -0
v 3.5 19 -0
v -8.5 18 -1
v -8.5 21 -1
v -7.5 17 -1
v -7.5 18 -1
v -7.5 19 -1
v -7.5 20 -1
v -7.5 21 -1
v -7.5 22 -1
v -6.5 15 -1
v -6.5 17 -1
v -6.5 19 -1
v -6.5 20 -1
v -6.5 22 -1
v -6.5 24 -1
v -5.5 14 -1
v -5.5 15 -1
v -5.5 16 -1
v -5.5 17 -1
v -5.5 19 -1
v -5.5 20 -1
v -5.5 22 -1
v -5.5 23 -1
v -5.5 24 -1
v -5.5 25 -1
v -4.5 15 -1
v -4.5 16 -1
v -4.5 18 -1
v -4.5 21 -1
v -4.5 23 -1
v -4.5 24 -1
v -3.5 15 -1
v -3.5 16 -1
v -3.5 23 -1
v -3.5 24 -1
v -2.5 14 -1
v -2.5 15 -1
v -2.5 24 -1
v -2.5 25 -1
v -1.5 0 -1
v -1.5 16 -1
v -1.5 18 -1
v -1.5 21 -1
v -1.5 23 -1
v -0.5 16 -1
v -0.5 18 -1
v -0.5 21 -1
v -0.5 22 -1
v 0.5 16 -1
v 0.5 18 -1
v 0.5 21 -1
v 0.5 22 -1
v 1.5 0 -1
v 1.5 16 -1
v 1.5 18 -1
v 1.5 21 -1
v 1.5 23 -1
v 2.5 14 -1
v 2.5 15 -1
v 2.5 24 -1
v 2.5 25 -1
v 3.5 15 -1
v 3.5 16 -1
v 3.5 23 -1
v 3.5 24 -1
v 4.5 15 -1
v 4.5 16 -1
v 4.5 18 -1
v 4.5 21 -1
v 4.5 23 -1
v 4.5 24 -1
v 5.5 14 -1
v 5.5 15 -1
v 5.5 16 -1
v 5.5 17 -1
v 5.5 19 -1
v 5.5 20 -1
v 5.5 22 -1
v 5.5 23 -1
v 5.5 24 -1
v 5.5 25 -1
v 6.5 15 -1
v 6.5 17 -1
v 6.5 19 -1
v 6.5 20 -1
v 6.5 22 -1
v 6.5 24 -1
v 7.5 17 -1
v 7.5 18 -1
v 7.5 19 -1
v 7.5 20 -1
v 7.5 21 -1
v 7.5 22 -1
v 8.5 18 -1
v 8.5 21 -1
v -1.5 0 1
v 1.5 0 1
v -1.5 0 -1
v 1.5 0 -1
v -5.5 14 1
v -2.5 14 1
v 2.5 14 1
v 5.5 14 1
v -5.5 14 -1
v -2.5 14 -1
v 2.5 14 -1
v 5.5 14 -1
v -6.5 15 1
v -5.5 15 1
v 5.5 15 1
v 6.5 15 1
v -6.5 15 -1
v -5.5 15 -1
v 5.5 15 -1
v 6.5 15 -1
v -7.5 17 1
v -6.5 17 1
v 6.5 17 1
v 7.5 17 1
v -7.5 17 -1
v -6.5 17 -1
v 6.5 17 -1
v 7.5 17 -1
v -8.5 18 1
v -7.5 18 1
v -4.5 18 1
v -3.5 18 1
v 3.5 18 1
v 4.5 18 1
v 7.5 18 1
v 8.5 18 1
v -3.5 18 -0
v -1.5 18 -0
v 1.5 18 -0
v 3.5 18 -0
v -8.5 18 -1
v -7.5 18 -1
v -4.5 18 -1
v -1.5 18 -1
v 1.5 18 -1
v 4.5 18 -1
v 7.5 18 -1
v 8.5 18 -1
v -3.5 19 1
v -1.5 19 1
v 1.5 19 1
v 3.5 19 1
v -3.5 19 -0
v -1.5 19 -0
v 1.5 19 -0
v 3.5 19 -0
v -4.5 23 1
v -3.5 23 1
v 3.5 23 1
v 4.5 23 1
v -4.5 23 -1
v -3.5 23 -1
v 3.5 23 -1
v 4.5 23 -1
v -3.5 24 1
v -2.5 24 1
v 2.5 24 1
v 3.5 24 1
v -3.5 24 -1
v -2.5 24 -1
v 2.5 24 -1
v 3.5 24 -1
v -3.5 15 1
v -2.5 15 1
v 2.5 15 1
v 3.5 15 1
v -3.5 15 -1
v -2.5 15 -1
v 2.5 15 -1
v 3.5 15 -1
v -4.5 16 1
v -3.5 16 1
v 3.5 16 1
v 4.5 16 1
v -4.5 16 -1
v -3.5 16 -1
v 3.5 16 -1
v 4.5 16 -1
v -8.5 21 1
v -7.5 21 1
v -4.5 21 1
v -1.5 21 1
v 1.5 21 1
v 4.5 21 1
v 7.5 21 1
v 8.5 21 1
v -8.5 21 -1
v -7.5 21 -1
v -4.5 21 -1
v -1.5 21 -1
v 1.5 21 -1
v 4.5 21 -1
v 7.5 21 -1
v 8.5 21 -1
v -7.5 22 1
v -6.5 22 1
v 6.5 22 1
v 7.5 22 1
v -7.5 22 -1
v -6.5 22 -1
v 6.5 22 -1
v 7.5 22 -1
v -1.5 23 1
v 1.5 23 1
v -1.5 23 -1
v 1.5 23 -1
v -6.5 24 1
v -5.5 24 1
v 5.5 24 1
v 6.5 24 1
v -6.5 24 -1
v -5.5 24 -1
v 5.5 24 -1
v 6.5 24 -1
v -5.5 25 1
v -2.5 25 1
v 2.5 25 1
v 5.5 25 1
v -5.5 25 -1
v -2.5 25 -1
v 2.5 25 -1
v 5.5 25 -1

# faces
f 3/4/1 2/4/1 1/4/1
f 4/4/1 2/4/1 3/4/1
f 7/5/1 6/5/1 5/5/1
f 8/5/1 6/5/1 7/5/1
f 11/5/1 10/5/1 9/5/1
f 12/5/1 10/5/1 11/5/1
f 15/5/1 14/5/1 13/5/1
f 16/5/1 14/5/1 15/5/1
f 19/5/1 18/5/1 17/5/1
f 20/5/1 18/5/1 19/5/1
f 23/7/1 22/7/1 21/7/1
f 24/7/1 22/7/1 23/7/1
f 27/7/1 26/7/1 25/7/1
f 28/7/1 26/7/1 27/7/1
f 31/1/1 30/1/1 29/1/1
f 32/1/1 30/1/1 31/1/1
f 33/2/1 32/2/1 31/2/1
f 34/2/1 32/2/1 33/2/1
f 35/2/1 32/2/1 34/2/1
f 36/7/1 34/7/1 33/7/1
f 37/7/1 34/7/1 36/7/1
f 40/2/1 39/2/1 38/2/1
f 41/2/1 39/2/1 40/2/1
f 44/7/1 43/7/1 42/7/1
f 45/7/1 43/7/1 44/7/1
f 48/7/1 47/7/1 46/7/1
f 49/7/1 47/7/1 48/7/1
f 52/7/1 51/7/1 50/7/1
f 53/7/1 51/7/1 52/7/1
f 56/7/1 55/7/1 54/7/1
f 57/7/1 55/7/1 56/7/1
f 60/7/1 59/7/1 58/7/1
f 61/7/1 59/7/1 60/7/1
f 64/7/1 63/7/1 62/7/1
f 65/7/1 63/7/1 64/7/1
f 68/7/1 67/7/1 66/7/1
f 69/7/1 67/7/1 68/7/1
f 70/7/2 71/7/2 72/7/2
f 72/7/2 71/7/2 73/7/2
f 74/7/2 75/7/2 76/7/2
f 76/7/2 75/7/2 77/7/2
f 78/7/2 79/7/2 80/7/2
f 80/7/2 79/7/2 81/7/2
f 82/7/2 83/7/2 84/7/2
f 84/7/2 83/7/2 85/7/2
f 86/7/2 87/7/2 88/7/2
f 88/7/2 87/7/2 89/7/2
f 90/7/2 91/7/2 92/7/2
f 92/7/2 91/7/2 93/7/2
f 94/7/2 95/7/2 96/7/2
f 96/7/2 95/7/2 97/7/2
f 98/1/2 99/1/2 100/1/2
f 100/1/2 99/1/2 101/1/2
f 100/2/2 101/2/2 102/2/2
f 102/2/2 101/2/2 103/2/2
f 103/2/2 101/2/2 104/2/2
f 102/7/2 103/7/2 105/7/2
f 105/7/2 103/7/2 106/7/2
f 107/2/2 108/2/2 109/2/2
f 109/2/2 108/2/2 110/2/2
f 111/7/2 112/7/2 113/7/2
f 113/7/2 112/7/2 114/7/2
f 115/7/2 116/7/2 117/7/2
f 117/7/2 116/7/2 118/7/2
f 119/5/2 120/5/2 121/5/2
f 121/5/2 120/5/2 122/5/2
f 123/5/2 124/5/2 125/5/2
f 125/5/2 124/5/2 126/5/2
f 127/5/2 128/5/2 129/5/2
f 129/5/2 128/5/2 130/5/2
f 131/5/2 132/5/2 133/5/2
f 133/5/2 132/5/2 134/5/2
f 135/3/2 136/3/2 137/3/2
f 137/3/2 136/3/2 138/3/2
f 142/4/3 140/4/3 139/4/3
f 143/4/3 140/4/3 142/4/3
f 144/4/3 140/4/3 143/4/3
f 145/4/3 140/4/3 144/4/3
f 148/5/3 142/5/3 141/5/3
f 148/5/3 143/5/3 142/5/3
f 149/6/3 144/6/3 143/6/3
f 149/5/3 143/5/3 148/5/3
f 150/5/3 146/5/3 145/5/3
f 150/6/3 144/6/3 149/6/3
f 150/5/3 145/5/3 144/5/3
f 151/5/3 146/5/3 150/5/3
f 154/5/3 148/5/3 147/5/3
f 155/5/3 148/5/3 154/5/3
f 156/6/3 149/6/3 148/6/3
f 156/5/3 148/5/3 155/5/3
f 157/7/3 150/7/3 149/7/3
f 157/6/3 149/6/3 156/6/3
f 158/6/3 151/6/3 150/6/3
f 158/7/3 150/7/3 157/7/3
f 159/5/3 152/5/3 151/5/3
f 159/6/3 151/6/3 158/6/3
f 160/5/3 152/5/3 159/5/3
f 161/5/3 152/5/3 160/5/3
f 163/6/3 155/6/3 154/6/3
f 163/7/3 154/7/3 153/7/3
f 164/7/3 158/7/3 157/7/3
f 164/6/3 155/6/3 163/6/3
f 164/7/3 156/7/3 155/7/3
f 164/7/3 160/7/3 159/7/3
f 164/7/3 159/7/3 158/7/3
f 164/7/3 157/7/3 156/7/3
f 165/7/3 160/7/3 164/7/3
f 166/7/3 160/7/3 165/7/3
f 167/6/3 161/6/3 160/6/3
f 167/7/3 160/7/3 166/7/3
f 168/7/3 162/7/3 161/7/3
f 168/6/3 161/6/3 167/6/3
f 169/7/3 163/7/3 153/7/3
f 169/7/3 164/7/3 163/7/3
f 170/7/3 164/7/3 169/7/3
f 171/7/3 166/7/3 165/7/3
f 172/7/3 166/7/3 171/7/3
f 173/7/3 168/7/3 167/7/3
f 174/7/3 162/7/3 168/7/3
f 174/7/3 168/7/3 173/7/3
f 175/7/3 169/7/3 153/7/3
f 176/7/3 169/7/3 175/7/3
f 177/7/3 162/7/3 174/7/3
f 178/7/3 162/7/3 177/7/3
f 182/7/3 166/7/3 172/7/3
f 183/7/3 166/7/3 182/7/3
f 185/2/3 181/2/3 180/2/3
f 185/1/3 180/1/3 179/1/3
f 186/7/3 183/7/3 182/7/3
f 186/2/3 181/2/3 185/2/3
f 186/7/3 182/7/3 181/7/3
f 187/2/3 184/2/3 183/2/3
f 187/7/3 183/7/3 186/7/3
f 188/2/3 184/2/3 187/2/3
f 189/1/3 186/1/3 185/1/3
f 189/1/3 185/1/3 179/1/3
f 190/7/3 187/7/3 186/7/3
f 190/1/3 186/1/3 189/1/3
f 191/1/3 188/1/3 187/1/3
f 191/7/3 187/7/3 190/7/3
f 192/2/3 184/2/3 188/2/3
f 192/1/3 188/1/3 191/1/3
f 193/1/3 189/1/3 179/1/3
f 194/2/3 190/2/3 189/2/3
f 194/1/3 189/1/3 193/1/3
f 195/7/3 191/7/3 190/7/3
f 195/2/3 190/2/3 194/2/3
f 196/7/3 191/7/3 195/7/3
f 197/2/3 192/2/3 191/2/3
f 197/7/3 191/7/3 196/7/3
f 198/2/3 184/2/3 192/2/3
f 198/2/3 192/2/3 197/2/3
f 203/7/3 200/7/3 199/7/3
f 206/7/3 197/7/3 196/7/3
f 208/7/3 202/7/3 201/7/3
f 209/7/3 204/7/3 203/7/3
f 209/7/3 203/7/3 199/7/3
f 210/7/3 204/7/3 209/7/3
f 211/7/3 206/7/3 205/7/3
f 212/7/3 197/7/3 206/7/3
f 212/7/3 206/7/3 211/7/3
f 213/7/3 208/7/3 207/7/3
f 214/7/3 202/7/3 208/7/3
f 214/7/3 208/7/3 213/7/3
f 215/7/3 209/7/3 199/7/3
f 216/6/3 210/6/3 209/6/3
f 216/7/3 209/7/3 215/7/3
f 217/7/3 212/7/3 211/7/3
f 217/6/3 210/6/3 216/6/3
f 217/7/3 213/7/3 212/7/3
f 217/7/3 211/7/3 210/7/3
f 218/7/3 213/7/3 217/7/3
f 219/7/3 213/7/3 218/7/3
f 220/7/3 213/7/3 219/7/3
f 221/7/3 213/7/3 220/7/3
f 222/6/3 214/6/3 213/6/3
f 222/7/3 213/7/3 221/7/3
f 223/7/3 202/7/3 214/7/3
f 223/6/3 214/6/3 222/6/3
f 224/7/3 202/7/3 223/7/3
f 225/5/3 217/5/3 216/5/3
f 225/5/3 218/5/3 217/5/3
f 226/6/3 219/6/3 218/6/3
f 226/5/3 218/5/3 225/5/3
f 227/7/3 220/7/3 219/7/3
f 227/6/3 219/6/3 226/6/3
f 228/6/3 221/6/3 220/6/3
f 228/7/3 220/7/3 227/7/3
f 229/5/3 222/5/3 221/5/3
f 229/6/3 221/6/3 228/6/3
f 229/5/3 223/5/3 222/5/3
f 230/5/3 223/5/3 229/5/3
f 231/5/3 227/5/3 226/5/3
f 232/5/3 227/5/3 231/5/3
f 233/6/3 228/6/3 227/6/3
f 233/5/3 227/5/3 232/5/3
f 234/5/3 229/5/3 228/5/3
f 234/6/3 228/6/3 233/6/3
f 235/5/3 229/5/3 234/5/3
f 236/5/3 229/5/3 235/5/3
f 237/3/3 233/3/3 232/3/3
f 237/3/3 235/3/3 234/3/3
f 237/3/3 234/3/3 233/3/3
f 238/3/3 235/3/3 237/3/3
f 241/7/3 240/7/3 239/7/3
f 242/7/3 240/7/3 241/7/3
f 245/7/3 244/7/3 243/7/3
f 246/7/3 244/7/3 245/7/3
f 247/4/4 248/4/4 250/4/4
f 250/4/4 248/4/4 251/4/4
f 251/4/4 248/4/4 252/4/4
f 252/4/4 248/4/4 253/4/4
f 249/5/4 250/5/4 256/5/4
f 250/5/4 251/5/4 256/5/4
f 251/6/4 252/6/4 257/6/4
f 256/5/4 251/5/4 257/5/4
f 253/5/4 254/5/4 258/5/4
f 257/6/4 252/6/4 258/6/4
f 252/5/4 253/5/4 258/5/4
f 258/5/4 254/5/4 259/5/4
f 255/5/4 256/5/4 262/5/4
f 262/5/4 256/5/4 263/5/4
f 256/6/4 257/6/4 264/6/4
f 263/5/4 256/5/4 264/5/4
f 257/7/4 258/7/4 265/7/4
f 264/6/4 257/6/4 265/6/4
f 258/6/4 259/6/4 266/6/4
f 265/7/4 258/7/4 266/7/4
f 259/5/4 260/5/4 267/5/4
f 266/6/4 259/6/4 267/6/4
f 267/5/4 260/5/4 268/5/4
f 268/5/4 260/5/4 269/5/4
f 262/6/4 263/6/4 271/6/4
f 261/7/4 262/7/4 271/7/4
f 265/7/4 266/7/4 272/7/4
f 271/6/4 263/6/4 272/6/4
f 263/7/4 264/7/4 272/7/4
f 267/7/4 268/7/4 272/7/4
f 266/7/4 267/7/4 272/7/4
f 264/7/4 265/7/4 272/7/4
f 272/7/4 268/7/4 273/7/4
f 273/7/4 268/7/4 274/7/4
f 268/6/4 269/6/4 275/6/4
f 274/7/4 268/7/4 275/7/4
f 269/7/4 270/7/4 276/7/4
f 275/6/4 269/6/4 276/6/4
f 261/7/4 271/7/4 277/7/4
f 271/7/4 272/7/4 277/7/4
f 277/7/4 272/7/4 278/7/4
f 275/7/4 276/7/4 279/7/4
f 276/7/4 270/7/4 280/7/4
f 279/7/4 276/7/4 280/7/4
f 261/7/4 277/7/4 281/7/4
f 281/7/4 277/7/4 282/7/4
f 280/7/4 270/7/4 283/7/4
f 283/7/4 270/7/4 284/7/4
f 273/7/4 274/7/4 287/7/4
f 287/7/4 274/7/4 288/7/4
f 285/1/4 286/1/4 290/1/4
f 286/2/4 287/2/4 290/2/4
f 287/7/4 288/7/4 291/7/4
f 290/2/4 287/2/4 291/2/4
f 288/2/4 289/2/4 292/2/4
f 291/7/4 288/7/4 292/7/4
f 292/2/4 289/2/4 293/2/4
f 290/1/4 291/1/4 294/1/4
f 285/1/4 290/1/4 294/1/4
f 291/7/4 292/7/4 295/7/4
f 294/1/4 291/1/4 295/1/4
f 292/1/4 293/1/4 296/1/4
f 295/7/4 292/7/4 296/7/4
f 293/2/4 289/2/4 297/2/4
f 296/1/4 293/1/4 297/1/4
f 285/1/4 294/1/4 298/1/4
f 294/2/4 295/2/4 299/2/4
f 298/1/4 294/1/4 299/1/4
f 295/7/4 296/7/4 300/7/4
f 299/2/4 295/2/4 300/2/4
f 296/2/4 297/2/4 301/2/4
f 300/7/4 296/7/4 301/7/4
f 297/2/4 289/2/4 302/2/4
f 301/2/4 297/2/4 302/2/4
f 303/7/4 304/7/4 307/7/4
f 305/7/4 306/7/4 310/7/4
f 307/7/4 308/7/4 311/7/4
f 303/7/4 307/7/4 311/7/4
f 311/7/4 308/7/4 312/7/4
f 300/7/4 301/7/4 313/7/4
f 313/7/4 301/7/4 314/7/4
f 309/7/4 310/7/4 315/7/4
f 310/7/4 306/7/4 316/7/4
f 315/7/4 310/7/4 316/7/4
f 303/7/4 311/7/4 317/7/4
f 311/6/4 312/6/4 318/6/4
f 317/7/4 311/7/4 318/7/4
f 313/7/4 314/7/4 319/7/4
f 318/6/4 312/6/4 319/6/4
f 314/7/4 315/7/4 319/7/4
f 312/7/4 313/7/4 319/7/4
f 319/7/4 315/7/4 320/7/4
f 320/7/4 315/7/4 321/7/4
f 321/7/4 315/7/4 322/7/4
f 322/7/4 315/7/4 323/7/4
f 315/6/4 316/6/4 324/6/4
f 323/7/4 315/7/4 324/7/4
f 316/7/4 306/7/4 325/7/4
f 324/6/4 316/6/4 325/6/4
f 325/7/4 306/7/4 326/7/4
f 318/5/4 319/5/4 327/5/4
f 319/5/4 320/5/4 327/5/4
f 320/6/4 321/6/4 328/6/4
f 327/5/4 320/5/4 328/5/4
f 321/7/4 322/7/4 329/7/4
f 328/6/4 321/6/4 329/6/4
f 322/6/4 323/6/4 330/6/4
f 329/7/4 322/7/4 330/7/4
f 323/5/4 324/5/4 331/5/4
f 330/6/4 323/6/4 331/6/4
f 324/5/4 325/5/4 331/5/4
f 331/5/4 325/5/4 332/5/4
f 328/5/4 329/5/4 333/5/4
f 333/5/4 329/5/4 334/5/4
f 329/6/4 330/6/4 335/6/4
f 334/5/4 329/5/4 335/5/4
f 330/5/4 331/5/4 336/5/4
f 335/6/4 330/6/4 336/6/4
f 336/5/4 331/5/4 337/5/4
f 337/5/4 331/5/4 338/5/4
f 334/3/4 335/3/4 339/3/4
f 336/3/4 337/3/4 339/3/4
f 335/3/4 336/3/4 339/3/4
f 339/3/4 337/3/4 340/3/4
f 343/1/5 342/1/5 341/1/5
f 344/1/5 342/1/5 343/1/5
f 349/7/5 346/7/5 345/7/5
f 350/7/5 346/7/5 349/7/5
f 351/7/5 348/7/5 347/7/5
f 352/7/5 348/7/5 351/7/5
f 357/5/5 354/5/5 353/5/5
f 358/5/5 354/5/5 357/5/5
f 359/5/5 356/5/5 355/5/5
f 360/5/5 356/5/5 359/5/5
f 365/5/5 362/5/5 361/5/5
f 366/5/5 362/5/5 365/5/5
f 367/5/5 364/5/5 363/5/5
f 368/5/5 364/5/5 367/5/5
f 377/7/5 372/7/5 371/7/5
f 380/7/5 374/7/5 373/7/5
f 381/4/5 370/4/5 369/4/5
f 382/4/5 370/4/5 381/4/5
f 383/7/5 378/7/5 377/7/5
f 383/7/5 377/7/5 371/7/5
f 384/7/5 378/7/5 383/7/5
f 385/7/5 380/7/5 379/7/5
f 386/7/5 374/7/5 380/7/5
f 386/7/5 380/7/5 385/7/5
f 387/3/5 376/3/5 375/3/5
f 388/3/5 376/3/5 387/3/5
f 393/7/5 390/7/5 389/7/5
f 394/7/5 390/7/5 393/7/5
f 395/7/5 392/7/5 391/7/5
f 396/7/5 392/7/5 395/7/5
f 401/7/5 398/7/5 397/7/5
f 402/7/5 398/7/5 401/7/5
f 403/7/5 400/7/5 399/7/5
f 404/7/5 400/7/5 403/7/5
f 409/7/5 406/7/5 405/7/5
f 410/7/5 406/7/5 409/7/5
f 411/7/5 408/7/5 407/7/5
f 412/7/5 408/7/5 411/7/5
f 413/7/6 414/7/6 417/7/6
f 417/7/6 414/7/6 418/7/6
f 415/7/6 416/7/6 419/7/6
f 419/7/6 416/7/6 420/7/6
f 421/7/6 422/7/6 425/7/6
f 425/7/6 422/7/6 426/7/6
f 423/7/6 424/7/6 427/7/6
f 427/7/6 424/7/6 428/7/6
f 429/4/6 430/4/6 437/4/6
f 437/4/6 430/4/6 438/4/6
f 431/7/6 432/7/6 439/7/6
f 439/7/6 432/7/6 440/7/6
f 433/7/6 434/7/6 441/7/6
f 441/7/6 434/7/6 442/7/6
f 435/3/6 436/3/6 443/3/6
f 443/3/6 436/3/6 444/3/6
f 445/5/6 446/5/6 449/5/6
f 449/5/6 446/5/6 450/5/6
f 447/5/6 448/5/6 451/5/6
f 451/5/6 448/5/6 452/5/6
f 453/2/6 454/2/6 455/2/6
f 455/2/6 454/2/6 456/2/6
f 457/5/6 458/5/6 461/5/6
f 461/5/6 458/5/6 462/5/6
f 459/5/6 460/5/6 463/5/6
f 463/5/6 460/5/6 464/5/6
f 465/7/6 466/7/6 469/7/6
f 469/7/6 466/7/6 470/7/6
f 467/7/6 468/7/6 471/7/6
f 471/7/6 468/7/6 472/7/6
